<svg fill="#ffffff" viewBox="0 0 91.12 27.73" xmlns="http://www.w3.org/2000/svg"><polygon points="45.8 12.6 37.43 12.6 37.43 10.48 45.8 10.48 45.8 8.11 37.43 8.11 37.43 6.21 45.8 6.21 45.8 3.86 34.46 3.86 34.46 14.95 45.8 14.95 45.8 12.6" class="cls-1"></polygon><polygon points="81.85 8.25 88.88 14.95 91.12 14.95 91.12 3.86 88.15 3.86 88.15 10.57 81.13 3.86 78.89 3.86 78.89 14.95 81.85 14.95 81.85 8.25" class="cls-1"></polygon><path d="M102.64,14H90.4V25.12h12.24Zm-3,8.74h-6.3V16.38h6.3Z" transform="translate(-26.95 -10.17)" class="cls-1"></path><polygon points="22 8.25 29.03 14.95 31.26 14.95 31.26 3.86 28.3 3.86 28.3 10.57 21.27 3.86 19.03 3.86 19.03 14.95 22 14.95 22 8.25" class="cls-1"></polygon><polygon points="54.63 11.53 57.67 14.95 61.42 14.95 56.51 9.41 61.43 3.86 57.68 3.86 54.63 7.3 51.59 3.86 47.84 3.86 52.76 9.41 47.85 14.95 51.6 14.95 54.63 11.53" class="cls-1"></polygon><polygon points="0 15 0 24.32 12.38 17.74 0 15" class="cls-2"></polygon><polygon points="12.38 0 0 6.58 0 15 12.38 17.74 12.38 0" class="cls-3"></polygon><polygon points="12.38 17.74 0 24.32 15.35 27.73 27.73 21.14 12.38 17.74" class="cls-4"></polygon></svg>