<svg height="28" style="width:auto" viewBox="0 0 92 28" fill="none" xmlns="http://www.w3.org/2000/svg"><path d="M91.3643 4.19617e-05H0V27.9953H91.3643V4.19617e-05Z" fill="#FFDD00"></path><path d="M33.7832 15.3256L31.4655 15.3319V17.3496H33.7879C34.3467 17.3496 34.8008 16.8972 34.8008 16.3384C34.8008 15.7796 34.3467 15.3256 33.7832 15.3256ZM26.83 13.5254H36.6502C38.2472 13.5254 39.5426 14.8208 39.5426 16.4178C39.5426 17.6354 38.7901 18.6768 37.7249 19.1038L39.7489 22.0232H34.1594L32.7196 19.3086H31.4575V22.0232H26.83V13.5254Z" fill="#DE211B"></path><path d="M60.4195 20.1547H65.1804V22.0232H55.6142V13.5254H60.4195V20.1547Z" fill="#DE211B"></path><path d="M47.072 20.1547H52.9457V22.0232H42.1778V13.5254H52.4107V15.3938H47.072V16.84H52.4107V18.7085H47.072V20.1547Z" fill="#DE211B"></path><path d="M71.3636 20.1547H76.1245V22.0232H66.5599V13.5254H71.3636V20.1547Z" fill="#DE211B"></path><path d="M71.5764 7.80886H15.9732V9.78845H71.5764C72.1225 9.78845 72.567 9.34554 72.567 8.79786C72.567 8.25018 72.1241 7.80727 71.5764 7.80727V7.80886ZM7.87549 5.8515H80.5187C82.1585 5.8515 83.4888 7.18181 83.4888 8.82168C83.4888 10.4615 82.1585 11.7919 80.5187 11.7919H15.9732V22.0248H7.87549V5.8515Z" fill="#DE211B"></path><path d="M23.7154 13.5254H19.0879V22.0232H23.7154V13.5254Z" fill="#DE211B"></path><path d="M82.0855 13.5254H77.458V22.0232H82.0855V13.5254Z" fill="#DE211B"></path></svg>